<?xml version="1.0" encoding="UTF-8"?>
<svg width="752pt" height="752pt" version="1.1" viewBox="0 0 752 752" xmlns="http://www.w3.org/2000/svg">
 <path d="m540.54 180.88h-329.04c-13.711 0-24.945 11.211-24.945 24.93v329.04c0 13.715 11.234 24.945 24.945 24.945h329.04c13.691 0 24.891-11.211 24.891-24.945v-329.04c0-13.715-11.199-24.93-24.891-24.93zm-152.29 296.79c-4.6406 4.5938-11.098 6.8828-19.363 6.8828-8.4727 0-15.031-2.2383-19.668-6.7344-4.6406-4.4805-6.9609-10.809-6.9609-18.977 0-8.4727 2.2695-14.883 6.8086-19.223 4.543-4.3398 11.148-6.5039 19.824-6.5039 8.3711 0 14.844 2.2227 19.438 6.6523 4.5938 4.4414 6.8828 10.793 6.8828 19.062-0.003906 7.9727-2.3281 14.254-6.9609 18.84zm49.93-137.89c-5.0469 8.0742-14.633 17.148-28.746 27.234-9.6836 7.1641-15.816 12.617-18.391 16.34-2.5703 3.7383-3.8516 8.6289-3.8516 14.688v9.0742h-40.094v-11.211c0-9.6836 2.0664-18.105 6.2031-25.266 4.1328-7.1602 11.703-14.777 22.699-22.844 10.586-7.5625 17.57-13.715 20.945-18.457 3.375-4.7422 5.0664-10.035 5.0664-15.883 0-6.5547-2.4258-11.551-7.2617-14.98-4.8359-3.4297-11.598-5.1445-20.27-5.1445-15.133 0-32.379 4.9453-51.742 14.828l-16.488-33.137c22.492-12.605 46.348-18.91 71.562-18.91 20.77 0 37.289 4.9922 49.547 14.98 12.258 9.9883 18.379 23.301 18.379 39.945 0 11.09-2.5195 20.672-7.5586 28.742z"/>
</svg>
