<?xml version="1.0" encoding="UTF-8"?>
<svg width="752pt" height="752pt" version="1.1" viewBox="0 0 752 752" xmlns="http://www.w3.org/2000/svg">
 <path d="m218.61 345.14h83.395c2.2891-0.019531 4.4883 0.89062 6.0938 2.5234 1.6055 1.6328 2.4766 3.8477 2.418 6.1328v198.83c-0.019531 2.2383-0.92969 4.375-2.5234 5.9414-1.5977 1.5703-3.75 2.4414-5.9883 2.418h-83.395c-4.6016-0.039063-8.3203-3.7578-8.3594-8.3594v-198.83c-0.0625-2.2617 0.78906-4.4531 2.3633-6.082 1.5703-1.6289 3.7344-2.5547 5.9961-2.5742zm107.3-7.3984v-138.38c0-2.2188 0.87891-4.3438 2.4492-5.9141 1.5664-1.5664 3.6953-2.4492 5.9102-2.4492h83.469c4.6211 0 8.3633 3.7461 8.3633 8.3633v353.26c0 2.2188-0.88281 4.3438-2.4492 5.9102-1.5664 1.5703-3.6953 2.4492-5.9141 2.4492h-83.469c-4.6172 0-8.3594-3.7422-8.3594-8.3594zm207.49 223.25h-83.395c-4.6016-0.039063-8.3242-3.7578-8.3633-8.3594v-276.16c0-2.2188 0.88281-4.3438 2.4492-5.9141 1.5664-1.5664 3.6953-2.4492 5.9141-2.4492h83.395c4.6172 0 8.3594 3.7422 8.3594 8.3633v276.16c-0.039062 4.6016-3.7578 8.3203-8.3594 8.3594z"/>
</svg>
