<?xml version="1.0" encoding="UTF-8"?>
<svg width="752pt" height="752pt" version="1.1" viewBox="0 0 752 752" xmlns="http://www.w3.org/2000/svg">
 <path d="m199.22 172.44h353.57c13.363 0 25.504 5.4609 34.301 14.258s14.258 20.938 14.258 34.301-5.4609 25.504-14.258 34.301-20.938 14.258-34.301 14.258l-353.57-0.003906c-13.363 0-25.504-5.4609-34.301-14.258s-14.258-20.938-14.258-34.301c0-13.363 5.4609-25.504 14.258-34.301 8.7969-8.793 20.938-14.254 34.301-14.254zm0 155h353.57c13.363 0 25.504 5.4609 34.301 14.258s14.258 20.938 14.258 34.301c0 13.363-5.4609 25.504-14.258 34.301-8.7969 8.7969-20.938 14.258-34.301 14.258l-353.57-0.003906c-13.363 0-25.504-5.4609-34.301-14.258-8.8008-8.7969-14.258-20.934-14.258-34.301 0-13.363 5.4609-25.504 14.258-34.301 8.7969-8.793 20.938-14.254 34.301-14.254zm0 155h353.57c13.363 0 25.504 5.4609 34.301 14.258s14.258 20.938 14.258 34.301c0 13.363-5.4609 25.504-14.258 34.301-8.7969 8.7969-20.938 14.258-34.301 14.258l-353.57-0.003906c-13.363 0-25.504-5.4609-34.301-14.258s-14.258-20.938-14.258-34.301 5.4609-25.504 14.258-34.301c8.7969-8.793 20.938-14.254 34.301-14.254z" fill-rule="evenodd"/>
</svg>
