<?xml version="1.0" encoding="UTF-8"?>
<svg width="752pt" height="752pt" version="1.1" viewBox="0 0 752 752" xmlns="http://www.w3.org/2000/svg">
 <g>
  <path d="m568.39 232.94h-46.344c-6.6992-27.527-31.395-48.098-60.953-48.098s-54.254 20.57-60.953 48.098h-216.54c-8.1719 0-14.801 6.625-14.801 14.801 0 8.1719 6.625 14.801 14.801 14.801h216.54c6.6992 27.527 31.395 48.098 60.953 48.098s54.254-20.57 60.953-48.098h46.344c8.1719 0 14.801-6.625 14.801-14.801-0.003906-8.1719-6.6289-14.801-14.801-14.801zm-107.3 48.098c-18.363 0-33.297-14.938-33.297-33.297 0-18.363 14.938-33.297 33.297-33.297 18.363 0 33.297 14.938 33.297 33.297 0.003907 18.363-14.934 33.297-33.297 33.297z"/>
  <path d="m568.39 361.2h-216.54c-6.6992-27.527-31.395-48.098-60.953-48.098-29.555 0-54.25 20.57-60.949 48.098h-46.344c-8.1719 0-14.801 6.625-14.801 14.801 0 8.1719 6.625 14.801 14.801 14.801h46.344c6.6992 27.523 31.395 48.094 60.953 48.094s54.254-20.57 60.953-48.098h216.54c8.1719 0 14.801-6.625 14.801-14.801-0.003906-8.1719-6.6289-14.797-14.801-14.797zm-277.49 48.098c-18.363 0-33.301-14.938-33.301-33.301s14.938-33.297 33.297-33.297c18.363 0 33.301 14.938 33.301 33.297 0 18.363-14.938 33.301-33.297 33.301z"/>
  <path d="m568.39 489.46h-46.344c-6.6992-27.527-31.395-48.098-60.953-48.098s-54.254 20.57-60.953 48.098h-216.54c-8.1719 0-14.801 6.625-14.801 14.801 0 8.1719 6.625 14.801 14.801 14.801h216.54c6.6992 27.527 31.395 48.098 60.953 48.098s54.254-20.57 60.953-48.098l46.344-0.003906c8.1719 0 14.801-6.625 14.801-14.801-0.003906-8.1719-6.6289-14.797-14.801-14.797zm-107.3 48.098c-18.363 0-33.297-14.938-33.297-33.297 0-18.363 14.938-33.297 33.297-33.297 18.363 0 33.297 14.938 33.297 33.297 0.003907 18.359-14.934 33.297-33.297 33.297z"/>
 </g>
</svg>
